<!--
YT Quality Loop icon.
Play glyph adapted from Tabler Icons "player-play-filled" (MIT).
Source: https://github.com/tabler/tabler-icons/blob/main/icons/filled/player-play.svg
-->
<svg xmlns="http://www.w3.org/2000/svg" width="512" height="512" viewBox="0 0 512 512" role="img" aria-label="YT Quality Loop">
  <defs>
    <linearGradient id="bg" x1="80" y1="32" x2="432" y2="480" gradientUnits="userSpaceOnUse">
      <stop offset="0" stop-color="#18181b"/>
      <stop offset="0.52" stop-color="#09090b"/>
      <stop offset="1" stop-color="#2a0505"/>
    </linearGradient>
    <linearGradient id="red" x1="118" y1="132" x2="394" y2="380" gradientUnits="userSpaceOnUse">
      <stop offset="0" stop-color="#ff3b30"/>
      <stop offset="0.52" stop-color="#ff0033"/>
      <stop offset="1" stop-color="#b80018"/>
    </linearGradient>
    <filter id="shadow" x="-20%" y="-20%" width="140%" height="150%" color-interpolation-filters="sRGB">
      <feDropShadow dx="0" dy="18" stdDeviation="22" flood-color="#000000" flood-opacity="0.5"/>
      <feDropShadow dx="0" dy="0" stdDeviation="18" flood-color="#ff0033" flood-opacity="0.35"/>
    </filter>
  </defs>
  <rect x="24" y="24" width="464" height="464" rx="112" fill="url(#bg)"/>
  <path d="M151 132h210c46 0 72 27 72 73v102c0 46-26 73-72 73H151c-46 0-72-27-72-73V205c0-46 26-73 72-73z" fill="url(#red)" filter="url(#shadow)"/>
  <path d="M223 188v136c0 15 16 24 29 16l105-68c12-8 12-24 0-32L252 172c-13-8-29 1-29 16z" fill="#ffffff"/>
  <path d="M154 112c31-29 72-48 118-49 66-1 124 33 157 84" fill="none" stroke="#ffffff" stroke-width="18" stroke-linecap="round" opacity="0.9"/>
  <path d="M397 94l37 63-74-3" fill="#ffffff" opacity="0.9"/>
  <path d="M358 400c-31 29-72 48-118 49-66 1-124-33-157-84" fill="none" stroke="#ff3b30" stroke-width="18" stroke-linecap="round" opacity="0.95"/>
  <path d="M115 418l-37-63 74 3" fill="#ff3b30" opacity="0.95"/>
</svg>
